<svg xmlns="http://www.w3.org/2000/svg" width="26.328" height="23.138" viewBox="0 0 26.328 23.138">
  <path id="corazon" d="M13.111,54.138a.769.769,0,0,1-.508-.191c-1.121-.981-2.175-1.879-3.194-2.748C3.743,46.371,0,43.182,0,38.533a7.928,7.928,0,0,1,1.908-5.266,6.579,6.579,0,0,1,10.506.757,10.151,10.151,0,0,1,.713,1.17,10.4,10.4,0,0,1,.739-1.178A6.705,6.705,0,0,1,19.385,31a6.62,6.62,0,0,1,5.034,2.267,7.928,7.928,0,0,1,1.908,5.266,9.594,9.594,0,0,1-2.658,6.31,59.157,59.157,0,0,1-6.659,6.195,49.092,49.092,0,0,1-3.9,3.1Zm2.9-4.275C21.3,45.38,13.88,52.3,13.866,52.343c-.1.331-1.41-14.636-1.5-14.968C14.417,50.148,15.08,50.652,16.011,49.862Z" transform="translate(0.001 -30.999)" fill="#7100c3"/>
</svg>
